<?xml version="1.0" encoding="utf-8"?>
<!-- Generator: Adobe Illustrator 16.0.0, SVG Export Plug-In . SVG Version: 6.00 Build 0)  -->
<!DOCTYPE svg PUBLIC "-//W3C//DTD SVG 1.1//EN" "http://www.w3.org/Graphics/SVG/1.1/DTD/svg11.dtd">
<svg version="1.1" id="Capa_1" xmlns="http://www.w3.org/2000/svg" xmlns:xlink="http://www.w3.org/1999/xlink" x="0px" y="0px"
	 width="180px" height="29px" viewBox="0 0 180 29" enable-background="new 0 0 180 29" xml:space="preserve">
<g>
	<g>
		<g>
			<path fill="#002858" d="M104.699,8.555l6.421,15.372l6.419-15.372h1.283L111.69,25.45h-1.117l-7.156-16.896H104.699z"/>
			<path fill="#002858" d="M121.058,10.269V8.079h1.188v2.189H121.058z M121.058,25.45V13.076h1.188V25.45H121.058z"/>
			<path fill="#002858" d="M131.829,14.147c-1.11,0.032-2.083,0.36-2.913,0.986c-0.833,0.628-1.414,1.487-1.749,2.583v7.733h-1.188
				V13.076h1.142v3.046c0.429-0.873,0.994-1.583,1.701-2.13c0.705-0.547,1.461-0.859,2.27-0.939c0.158-0.016,0.3-0.023,0.429-0.023
				c0.126,0,0.229,0,0.31,0V14.147z"/>
			<path fill="#002858" d="M139.604,24.854c-0.063,0.032-0.171,0.092-0.322,0.179c-0.15,0.087-0.341,0.171-0.57,0.25
				c-0.229,0.08-0.487,0.151-0.774,0.214c-0.283,0.063-0.594,0.096-0.925,0.096c-0.334,0-0.646-0.048-0.939-0.143
				c-0.293-0.096-0.551-0.239-0.772-0.429c-0.224-0.19-0.396-0.42-0.523-0.689c-0.127-0.271-0.19-0.588-0.19-0.953v-9.327h-1.735
				v-0.976h1.735V8.841h1.188v4.235h2.879v0.976h-2.879v9.041c0,0.461,0.158,0.807,0.476,1.036c0.316,0.229,0.675,0.345,1.071,0.345
				c0.49,0,0.914-0.084,1.271-0.249c0.356-0.167,0.574-0.273,0.654-0.321L139.604,24.854z"/>
			<path fill="#002858" d="M145.522,25.688c-2.63,0-3.945-1.824-3.945-5.473v-7.139h1.188v6.971c0,3.046,1.038,4.57,3.113,4.57
				c0.525,0,1.032-0.092,1.522-0.274c0.491-0.182,0.95-0.436,1.378-0.761c0.429-0.325,0.805-0.718,1.13-1.178
				c0.325-0.461,0.584-0.968,0.772-1.522v-7.806h1.188v10.707c0,0.397,0.167,0.596,0.502,0.596v1.071
				c-0.08,0.016-0.152,0.022-0.217,0.022c-0.063,0-0.11,0-0.144,0c-0.315,0-0.596-0.099-0.843-0.297
				c-0.245-0.198-0.367-0.465-0.367-0.797v-1.856c-0.54,0.999-1.281,1.777-2.225,2.332C147.634,25.41,146.616,25.688,145.522,25.688
				z"/>
			<path fill="#002858" d="M158.694,25.688c-0.57,0-1.102-0.1-1.594-0.297c-0.49-0.198-0.923-0.47-1.294-0.811
				c-0.372-0.34-0.663-0.745-0.868-1.213c-0.208-0.468-0.31-0.972-0.31-1.511s0.127-1.031,0.382-1.475
				c0.253-0.444,0.605-0.83,1.058-1.154c0.451-0.325,0.994-0.579,1.627-0.763c0.634-0.182,1.332-0.272,2.093-0.272
				c0.666,0,1.334,0.059,2.011,0.179c0.674,0.119,1.279,0.281,1.817,0.487v-1.214c0-1.173-0.333-2.105-0.998-2.796
				c-0.665-0.689-1.57-1.035-2.71-1.035c-0.604,0-1.241,0.127-1.915,0.38c-0.673,0.254-1.357,0.618-2.056,1.095l-0.452-0.809
				c1.584-1.079,3.091-1.618,4.518-1.618c1.49,0,2.662,0.432,3.521,1.297c0.854,0.864,1.282,2.058,1.282,3.581v6.043
				c0,0.397,0.175,0.596,0.523,0.596v1.071c-0.079,0.016-0.163,0.026-0.25,0.035c-0.088,0.008-0.164,0.012-0.226,0.012
				c-0.318,0-0.57-0.106-0.762-0.321c-0.19-0.214-0.302-0.472-0.332-0.773v-1.023c-0.571,0.747-1.302,1.317-2.188,1.714
				C160.685,25.488,159.725,25.688,158.694,25.688z M158.933,24.736c0.918,0,1.765-0.175,2.533-0.524
				c0.769-0.349,1.357-0.808,1.771-1.381c0.253-0.332,0.379-0.649,0.379-0.951v-2.188c-0.571-0.223-1.163-0.389-1.783-0.5
				c-0.618-0.111-1.26-0.166-1.925-0.166c-0.619,0-1.181,0.067-1.688,0.202c-0.509,0.135-0.942,0.321-1.308,0.558
				c-0.366,0.239-0.646,0.529-0.844,0.87c-0.198,0.342-0.298,0.718-0.298,1.13c0,0.413,0.08,0.802,0.238,1.165
				c0.158,0.365,0.38,0.679,0.665,0.94s0.621,0.468,1.01,0.619C158.073,24.66,158.489,24.736,158.933,24.736z"/>
			<path fill="#002858" d="M168.514,8.079h1.214v14.92c0,0.46,0.129,0.824,0.393,1.095c0.262,0.27,0.619,0.403,1.081,0.403
				c0.175,0,0.384-0.02,0.629-0.06c0.245-0.039,0.471-0.099,0.68-0.178l0.236,0.951c-0.269,0.111-0.604,0.204-0.998,0.274
				c-0.396,0.071-0.737,0.107-1.022,0.107c-0.667,0-1.201-0.202-1.605-0.607c-0.403-0.405-0.606-0.947-0.606-1.63V8.079z"/>
		</g>
		<g>
			<g>
				<g>
					<path fill="#002858" d="M34.023,3.557v15.032c0,1.368,0.259,2.386,0.77,3.035c0.55,0.614,1.423,0.921,2.626,0.921
						c1.163,0,2.035-0.307,2.62-0.921c0.544-0.613,0.82-1.632,0.82-3.035V3.557h3.649v15.442c0,2.194-0.614,3.856-1.846,4.99
						c-1.132,1.131-2.88,1.698-5.242,1.698c-2.369,0-4.115-0.567-5.246-1.698c-1.232-1.134-1.85-2.796-1.85-4.99V5.508
						c0-0.512,0.177-0.966,0.542-1.36c0.356-0.398,0.795-0.591,1.308-0.591H34.023z"/>
					<path fill="#002858" d="M58.018,25.273h-1.803c-0.515,0-0.933-0.161-1.256-0.486c-0.326-0.323-0.489-0.748-0.489-1.262v-6.994
						c0-0.822-0.253-1.423-0.746-1.801c-0.495-0.378-1.056-0.565-1.674-0.565c-0.611,0-1.161,0.187-1.641,0.565
						c-0.484,0.378-0.721,0.979-0.721,1.801v8.742H46.09v-8.021c0-2.332,0.608-3.891,1.826-4.681
						c1.215-0.792,2.562-1.22,4.032-1.287c1.508,0,2.896,0.393,4.167,1.181c1.265,0.791,1.903,2.385,1.903,4.787V25.273z"/>
					<path fill="#002858" d="M68.757,24.709c-0.72,0.379-1.489,0.607-2.288,0.694c-0.811,0.085-1.521,0.125-2.136,0.125
						c-1.234,0-2.313-0.331-3.236-1c-0.924-0.667-1.391-1.773-1.391-3.316c0-1.438,0.422-2.472,1.265-3.086
						c0.834-0.62,1.904-1.03,3.207-1.235c0.173,0,0.38-0.028,0.62-0.078c0.239-0.05,0.512-0.094,0.82-0.127
						c1.51-0.201,2.262-0.649,2.262-1.337c0-0.516-0.266-0.85-0.799-1.003c-0.531-0.155-1.019-0.234-1.463-0.234
						c-0.483,0-0.908,0.071-1.285,0.211c-0.381,0.136-0.654,0.39-0.82,0.77h-3.45c0.141-1.064,0.62-1.936,1.442-2.625
						c0.925-0.788,2.244-1.181,3.957-1.181c1.917,0,3.359,0.327,4.317,0.977c0.994,0.685,1.494,1.646,1.494,2.883v4.679
						c0,1.37-0.25,2.442-0.75,3.214C70.033,23.809,69.44,24.366,68.757,24.709z M67.934,18.385
						c-0.483,0.239-1.151,0.464-2.005,0.669l-1.181,0.253c-0.617,0.175-1.068,0.396-1.338,0.67
						c-0.241,0.376-0.362,0.759-0.362,1.131c0,0.517,0.157,0.925,0.467,1.235c0.308,0.277,0.75,0.412,1.334,0.412
						c0.957,0,1.713-0.275,2.262-0.823c0.546-0.547,0.824-1.304,0.824-2.263V18.385z"/>
					<path fill="#002858" d="M82.779,21.06h2.567c-0.378,1.438-1.099,2.534-2.156,3.291c-1.065,0.787-2.402,1.178-4.009,1.178
						c-1.957,0-3.483-0.628-4.576-1.899c-1.1-1.233-1.643-3.001-1.643-5.296c0-2.195,0.525-3.911,1.591-5.146
						c1.097-1.266,2.618-1.902,4.573-1.902c2.059,0,3.651,0.616,4.781,1.851c0.611,0.756,1.06,1.632,1.333,2.626h-3.595
						c-0.171-0.345-0.345-0.599-0.516-0.774c-0.444-0.48-1.077-0.722-1.902-0.722c-0.754,0-1.374,0.242-1.848,0.722
						c-0.617,0.686-0.928,1.816-0.928,3.397c0,1.572,0.311,2.689,0.928,3.341c0.443,0.547,1.111,0.819,2.003,0.819
						c0.582,0,1.082-0.117,1.488-0.354c0.105-0.035,0.198-0.095,0.286-0.183c0.085-0.086,0.181-0.18,0.282-0.282
						c0.067-0.102,0.207-0.242,0.412-0.412C82.056,21.143,82.366,21.06,82.779,21.06z"/>
					<path fill="#002858" d="M95.522,15.451c-0.515-0.721-1.219-1.079-2.104-1.079c-0.964,0-1.697,0.339-2.213,1.026
						c-0.512,0.688-0.77,1.632-0.77,2.829v7.046H86.94V4.695h1.746c0.482,0,0.893,0.17,1.235,0.513
						c0.34,0.342,0.515,0.754,0.515,1.234v6.951c0.615-1.03,1.493-1.678,2.616-1.953c1.133-0.274,2.212-0.208,3.242,0.206
						c0.956,0.41,1.767,1.059,2.415,1.953c0.653,0.894,0.974,2.127,0.974,3.7v7.974h-3.44V18.18c0-0.519-0.044-0.989-0.13-1.417
						C96.023,16.333,95.83,15.898,95.522,15.451z"/>
				</g>
			</g>
		</g>
	</g>
	<g id="Logo_2_1_">
		<path fill="#ACB3BE" d="M19.026,3.563l-5.123,2.946l11.89,6.893l0.011-5.909L19.026,3.563z M19.024,4.688l5.804,3.365
			l-0.006,3.658l-8.969-5.2L19.024,4.688z"/>
		<path fill="#002858" d="M13.428,0.317L6.636,4.222L6.625,10.13l11.915-6.85L13.428,0.317z M13.426,1.442l3.164,1.835L7.603,8.443
			L7.61,4.786L13.426,1.442z"/>
		<path fill="#60A59F" d="M13.376,28.928l6.792-3.904l0.01-5.908L8.264,25.964L13.376,28.928z M13.378,27.803l-3.165-1.835
			l8.988-5.166l-0.006,3.657L13.378,27.803z"/>
		<path fill="#A0AD2F" d="M20.656,24.743l5.122-2.945l0.014-7.834L20.681,11L20.656,24.743z M24.816,14.524l-0.012,6.71
			l-3.171,1.822l0.019-10.367L24.816,14.524z"/>
		<path fill="#DEA84D" d="M1.011,15.844L1,21.753l6.777,3.929l5.123-2.944L1.011,15.844z M1.982,17.535l8.968,5.199l-3.17,1.822
			l-5.804-3.364L1.982,17.535z"/>
		<path fill="#B8A997" d="M6.147,4.502L1.026,7.447l-0.014,7.834l5.111,2.964L6.147,4.502z M1.987,14.721L2,8.012L5.17,6.188
			L5.151,16.556L1.987,14.721z"/>
	</g>
</g>
</svg>
